<?xml version="1.0" standalone="no"?>
<!DOCTYPE svg PUBLIC "-//W3C//DTD SVG 20010904//EN"
 "http://www.w3.org/TR/2001/REC-SVG-20010904/DTD/svg10.dtd">
<svg version="1.0" xmlns="http://www.w3.org/2000/svg"
 width="300.000000pt" height="78.000000pt" viewBox="0 0 300.000000 78.000000"
 preserveAspectRatio="xMidYMid meet">

<g transform="translate(0.000000,78.000000) scale(0.100000,-0.100000)" stroke="none">
<path fill="#0060AA" d="M1110 615 l0 -165 25 0 25 0 0 165 0 165 -25 0 -25 0 0 -165z"/>
<path fill="#0060AA" d="M1470 614 l0 -166 26 5 c15 3 40 1 57 -4 48 -13 91 10 111 62 42 104
-30 208 -114 165 l-30 -14 0 59 c0 56 -1 59 -25 59 l-25 0 0 -166z m131 16
c14 -8 19 -21 19 -56 0 -60 -14 -84 -48 -84 -40 0 -52 17 -52 71 0 38 5 51 22
63 26 19 33 19 59 6z"/>
<path fill="#0060AA" d="M1940 615 l0 -165 25 0 25 0 0 165 0 165 -25 0 -25 0 0 -165z"/>
<path fill="#000036"  d="M10 590 l0 -140 30 0 c25 0 33 6 47 35 16 34 16 36 -7 60 -27 29 -25
32 52 96 48 41 49 41 74 24 36 -23 74 -5 74 37 l0 28 -135 0 -135 0 0 -140z"/>
<path fill="#000036" d="M480 702 c0 -42 38 -60 74 -37 25 17 26 17 74 -24 77 -64 79 -67 52
-96 -23 -24 -23 -26 -7 -60 14 -29 22 -35 47 -35 l30 0 0 140 0 140 -135 0
-135 0 0 -28z"/>
<path fill="#0060AA" d="M911 677 c-67 -24 -90 -123 -43 -186 14 -20 30 -27 61 -29 23 -2 49
2 57 9 11 9 14 7 14 -14 0 -37 -22 -49 -82 -45 -47 3 -53 1 -53 -17 0 -17 8
-20 60 -23 109 -6 125 18 125 188 l0 120 -32 -2 c-18 -1 -42 1 -53 4 -11 4
-35 1 -54 -5z m77 -46 c9 -5 12 -24 10 -57 -3 -41 -7 -51 -30 -64 -39 -21 -62
-5 -66 48 -4 54 11 82 46 82 15 0 33 -4 40 -9z"/>
<path fill="#0060AA" d="M1285 683 c-62 -15 -99 -100 -72 -164 22 -52 50 -72 103 -72 56 0 93
32 103 89 18 95 -49 168 -134 147z m67 -60 c23 -21 24 -89 1 -115 -22 -24 -69
-24 -83 1 -15 30 -12 97 6 115 20 21 53 20 76 -1z"/>
<path fill="#0060AA" d="M1785 685 c-5 -2 -22 -6 -37 -9 -19 -4 -28 -13 -28 -26 0 -17 5 -18
48 -13 40 4 50 2 55 -12 10 -24 2 -32 -39 -38 -93 -15 -114 -111 -31 -140 10
-4 33 -1 51 7 26 11 36 11 50 1 20 -15 56 -8 56 10 0 7 -6 15 -14 18 -10 4
-15 29 -17 86 -3 54 -9 85 -19 95 -16 15 -58 27 -75 21z m40 -155 c0 -30 -29
-49 -52 -34 -25 16 -22 36 7 51 32 16 45 12 45 -17z"/>
<path fill="#0060AA" d="M295 562 c-51 -24 -101 -76 -116 -120 -18 -56 -7 -144 25 -192 31
-48 109 -90 166 -90 121 0 220 97 220 217 0 48 -50 134 -96 166 -55 38 -141
46 -199 19z"/>
<path fill="#000036" d="M2447 343 c-4 -3 -7 -17 -7 -30 0 -20 5 -23 35 -23 32 0 35 2 35 30
0 26 -4 30 -28 30 -16 0 -32 -3 -35 -7z"/>
<path fill="#000036" d="M10 150 l0 -140 135 0 135 0 0 24 c0 14 -10 30 -24 39 -23 15 -26 15
-51 -5 l-27 -21 -61 61 -61 61 24 26 c24 26 24 26 6 60 -15 27 -25 35 -48 35
l-28 0 0 -140z"/>
<path fill="#000036" d="M677 261 c-22 -38 -22 -49 6 -71 l22 -19 -62 -62 c-62 -62 -62 -63
-83 -44 -29 26 -74 11 -78 -28 l-3 -27 135 0 136 0 0 140 0 140 -28 0 c-20 0
-32 -8 -45 -29z"/>
<path fill="#000036" d="M967 263 c-4 -3 -30 -5 -57 -4 l-51 1 3 -122 3 -123 33 -3 32 -3 0
85 c0 80 2 87 25 102 46 30 55 15 55 -91 l0 -96 33 3 32 3 3 80 c3 84 18 115
53 115 16 0 19 -11 21 -97 l3 -98 33 -3 32 -3 0 110 c0 106 -1 110 -26 130
-32 25 -71 27 -102 5 -20 -14 -24 -14 -44 0 -23 16 -69 21 -81 9z"/>
<path fill="#000036" d="M1308 254 c-78 -42 -77 -188 2 -229 30 -15 97 -20 138 -9 16 5 22 13
20 28 -3 18 -10 21 -63 21 -53 0 -61 3 -72 25 l-12 25 72 5 c69 5 72 6 75 32
4 37 -24 93 -54 107 -34 15 -73 13 -106 -5z m66 -40 c9 -3 16 -15 16 -25 0
-14 -7 -19 -30 -19 -31 0 -39 17 -18 38 14 14 12 14 32 6z"/>
<path fill="#000036" d="M1553 255 c-51 -22 -67 -59 -64 -148 1 -19 13 -41 35 -63 29 -29 41
-34 82 -34 73 0 96 9 92 34 -3 17 -9 21 -38 18 -54 -4 -76 5 -90 37 -27 67 14
125 82 115 36 -6 38 -5 38 19 0 14 -7 28 -16 31 -27 10 -87 6 -121 -9z"/>
<path fill="#000036" d="M1771 257 c-63 -32 -86 -110 -52 -180 24 -50 53 -67 116 -67 59 0 75
8 75 36 0 22 -3 23 -49 17 -43 -5 -50 -3 -65 18 -19 27 -21 71 -5 102 18 33
30 38 77 31 40 -6 42 -5 42 19 0 17 -7 26 -22 31 -37 10 -91 7 -117 -7z"/>
<path fill="#000036" d="M1968 258 c-21 -7 -28 -16 -28 -35 0 -23 3 -24 28 -18 52 15 77 12
80 -12 3 -18 -3 -22 -39 -28 -78 -13 -116 -88 -69 -135 22 -22 78 -27 110 -10
13 7 21 7 25 0 8 -13 72 -13 80 1 4 6 -2 21 -14 33 -17 18 -21 35 -21 97 0 41
-4 79 -8 85 -21 32 -89 43 -144 22z m80 -165 c-3 -32 -44 -46 -54 -19 -8 21
13 46 38 46 15 0 19 -6 16 -27z"/>
<path fill="#000036" d="M2276 263 c-4 -4 -28 -7 -54 -8 l-47 0 0 -120 0 -120 33 -3 32 -3 0
74 c0 60 4 79 21 101 11 14 29 26 39 26 17 0 20 -10 22 -97 l3 -98 35 0 35 0
3 80 c4 99 -9 148 -43 163 -29 13 -68 16 -79 5z"/>
<path fill="#000036" d="M2604 254 c-80 -39 -87 -176 -12 -228 22 -16 111 -22 142 -10 9 3 16
17 16 30 0 24 -2 24 -48 18 -38 -5 -50 -3 -64 13 -28 32 -27 94 3 124 17 17
28 19 60 14 32 -6 40 -3 46 11 15 40 -80 59 -143 28z"/>
<path fill="#000036" d="M2811 261 c-31 -9 -50 -36 -34 -52 8 -8 20 -8 47 1 44 14 66 8 66
-19 0 -15 -9 -21 -41 -26 -80 -14 -120 -85 -75 -134 15 -17 31 -19 117 -19 88
1 99 3 99 18 0 10 -7 20 -15 24 -12 4 -15 24 -15 86 0 73 -3 83 -25 105 -25
26 -70 31 -124 16z m79 -165 c0 -25 -30 -43 -50 -31 -14 9 -12 42 3 48 30 13
47 7 47 -17z"/>
<path fill="#000036" d="M2442 138 l3 -123 30 0 30 0 3 123 3 122 -36 0 -36 0 3 -122z"/>
</g>
</svg>
