<svg width="99" height="97" viewBox="0 0 99 97" fill="none" xmlns="http://www.w3.org/2000/svg">
<path d="M0.333313 19.3333V38H4.33331C7.66665 38 8.73331 37.2 10.6 33.3333C12.7333 28.8 12.7333 28.5333 9.66665 25.3333C6.06665 21.4667 6.33331 21.0667 16.6 12.5333C23 7.06667 23.1333 7.06667 26.4666 9.33334C31.2666 12.4 36.3333 10 36.3333 4.4V0.666669H18.3333H0.333313V19.3333Z" fill="#000036"/>
<path d="M63 4.4C63 10 68.0667 12.4 72.8667 9.33334C76.2 7.06667 76.3333 7.06667 82.7333 12.5333C93 21.0667 93.2667 21.4667 89.6667 25.3333C86.6 28.5333 86.6 28.8 88.7333 33.3333C90.6 37.2 91.6667 38 95 38H99V19.3333V0.666669H81H63V4.4Z" fill="#000036"/>
<path d="M38.3333 23.0667C31.5333 26.2667 24.8666 33.2 22.8666 39.0667C20.4666 46.5333 21.9333 58.2667 26.2 64.6667C30.3333 71.0667 40.7333 76.6667 48.3333 76.6667C64.4666 76.6667 77.6666 63.7333 77.6666 47.7333C77.6666 41.3333 71 29.8667 64.8666 25.6C57.5333 20.5333 46.0666 19.4667 38.3333 23.0667Z" fill="#0060AA"/>
<path d="M0.333313 78V96.6667H18.3333H36.3333V93.4667C36.3333 91.6 35 89.4667 33.1333 88.2667C30.0666 86.2667 29.6666 86.2667 26.3333 88.9333L22.7333 91.7333L14.6 83.6L6.46665 75.4667L9.66665 72C12.8666 68.5333 12.8666 68.5333 10.4666 64C8.46665 60.4 7.13331 59.3333 4.06665 59.3333H0.333313V78Z" fill="#000036"/>
<path d="M89.2667 63.2C86.3333 68.2667 86.3333 69.7333 90.0667 72.6667L93 75.2L84.7333 83.4667C76.4667 91.7333 76.4667 91.8667 73.6667 89.3333C69.8 85.8667 63.8 87.8667 63.2667 93.0667L62.8667 96.6667H80.8667H99V78V59.3333H95.2667C92.6 59.3333 91 60.4 89.2667 63.2Z" fill="#000036"/>
</svg>
